<mxfile host="65bd71144e">
    <diagram id="TmYEcgRQ2fc2DyTBrqyL" name="Page-1">
        <mxGraphModel dx="634" dy="395" grid="1" gridSize="10" guides="1" tooltips="1" connect="1" arrows="1" fold="1" page="1" pageScale="1" pageWidth="850" pageHeight="1100" background="#121212" math="0" shadow="0">
            <root>
                <mxCell id="0"/>
                <mxCell id="1" parent="0"/>
                <mxCell id="VZBSSg5EoV50FxqD5qvx-1" value="Join by Name" style="rounded=0;whiteSpace=wrap;html=1;fontColor=#FFFFFF;labelBackgroundColor=none;fillColor=#121212;strokeColor=#FFFFFF;gradientColor=none;" parent="1" vertex="1">
                    <mxGeometry x="340" y="80" width="120" height="60" as="geometry"/>
                </mxCell>
                <mxCell id="VZBSSg5EoV50FxqD5qvx-3" value="Join by Favourite Food" style="rounded=0;whiteSpace=wrap;html=1;fontColor=#FFFFFF;labelBackgroundColor=none;fillColor=#121212;strokeColor=#FFFFFF;gradientColor=none;" parent="1" vertex="1">
                    <mxGeometry x="340" y="200" width="120" height="60" as="geometry"/>
                </mxCell>
                <mxCell id="VZBSSg5EoV50FxqD5qvx-4" value="" style="endArrow=classic;html=1;rounded=0;exitX=0.25;exitY=1;exitDx=0;exitDy=0;entryX=0.5;entryY=0;entryDx=0;entryDy=0;fontColor=#FFFFFF;labelBackgroundColor=none;fillColor=#121212;strokeColor=#FFFFFF;" parent="1" source="VZBSSg5EoV50FxqD5qvx-1" edge="1">
                    <mxGeometry width="50" height="50" relative="1" as="geometry">
                        <mxPoint x="400" y="430" as="sourcePoint"/>
                        <mxPoint x="210" y="180" as="targetPoint"/>
                        <Array as="points">
                            <mxPoint x="210" y="140"/>
                        </Array>
                    </mxGeometry>
                </mxCell>
                <mxCell id="VZBSSg5EoV50FxqD5qvx-5" value="Unique Match" style="edgeLabel;html=1;align=center;verticalAlign=middle;resizable=0;points=[];fontColor=#FFFFFF;labelBackgroundColor=none;fillColor=#121212;" parent="VZBSSg5EoV50FxqD5qvx-4" vertex="1" connectable="0">
                    <mxGeometry x="0.16" y="-2" relative="1" as="geometry">
                        <mxPoint x="16" y="2" as="offset"/>
                    </mxGeometry>
                </mxCell>
                <mxCell id="VZBSSg5EoV50FxqD5qvx-10" value="Multiple Matches Found" style="endArrow=classic;html=1;rounded=0;exitX=0.75;exitY=1;exitDx=0;exitDy=0;entryX=0.5;entryY=0;entryDx=0;entryDy=0;fontColor=#FFFFFF;labelBackgroundColor=none;fillColor=#121212;strokeColor=#FFFFFF;" parent="1" source="VZBSSg5EoV50FxqD5qvx-1" edge="1">
                    <mxGeometry width="50" height="50" relative="1" as="geometry">
                        <mxPoint x="400" y="430" as="sourcePoint"/>
                        <mxPoint x="590" y="180" as="targetPoint"/>
                        <Array as="points">
                            <mxPoint x="590" y="140"/>
                        </Array>
                    </mxGeometry>
                </mxCell>
                <mxCell id="VZBSSg5EoV50FxqD5qvx-12" value="Should never occur.&lt;br&gt;Raise an Error." style="rounded=1;whiteSpace=wrap;html=1;arcSize=48;fontColor=#FFFFFF;labelBackgroundColor=none;fillColor=#121212;strokeColor=#FFFFFF;gradientColor=none;" parent="1" vertex="1">
                    <mxGeometry x="530" y="180" width="120" height="60" as="geometry"/>
                </mxCell>
                <mxCell id="VZBSSg5EoV50FxqD5qvx-14" value="Join complete&lt;br&gt;(Name)" style="rounded=1;whiteSpace=wrap;html=1;arcSize=48;fontColor=#FFFFFF;labelBackgroundColor=none;fillColor=#121212;strokeColor=#FFFFFF;gradientColor=none;" parent="1" vertex="1">
                    <mxGeometry x="150" y="180" width="120" height="60" as="geometry"/>
                </mxCell>
                <mxCell id="VZBSSg5EoV50FxqD5qvx-15" value="" style="endArrow=classic;html=1;rounded=0;exitX=0.25;exitY=1;exitDx=0;exitDy=0;entryX=0.5;entryY=0;entryDx=0;entryDy=0;fontColor=#FFFFFF;labelBackgroundColor=none;fillColor=#121212;strokeColor=#FFFFFF;" parent="1" edge="1">
                    <mxGeometry width="50" height="50" relative="1" as="geometry">
                        <mxPoint x="370" y="260" as="sourcePoint"/>
                        <mxPoint x="210" y="300" as="targetPoint"/>
                        <Array as="points">
                            <mxPoint x="210" y="260"/>
                        </Array>
                    </mxGeometry>
                </mxCell>
                <mxCell id="VZBSSg5EoV50FxqD5qvx-16" value="Unique Match" style="edgeLabel;html=1;align=center;verticalAlign=middle;resizable=0;points=[];fontColor=#FFFFFF;labelBackgroundColor=none;fillColor=#121212;" parent="VZBSSg5EoV50FxqD5qvx-15" vertex="1" connectable="0">
                    <mxGeometry x="0.16" y="-2" relative="1" as="geometry">
                        <mxPoint x="16" y="2" as="offset"/>
                    </mxGeometry>
                </mxCell>
                <mxCell id="VZBSSg5EoV50FxqD5qvx-17" value="No Match Found" style="endArrow=classic;html=1;rounded=0;exitX=0.75;exitY=1;exitDx=0;exitDy=0;entryX=0.5;entryY=0;entryDx=0;entryDy=0;fontColor=#FFFFFF;labelBackgroundColor=none;fillColor=#121212;strokeColor=#FFFFFF;" parent="1" edge="1">
                    <mxGeometry width="50" height="50" relative="1" as="geometry">
                        <mxPoint x="430" y="260" as="sourcePoint"/>
                        <mxPoint x="590" y="300" as="targetPoint"/>
                        <Array as="points">
                            <mxPoint x="590" y="260"/>
                        </Array>
                    </mxGeometry>
                </mxCell>
                <mxCell id="VZBSSg5EoV50FxqD5qvx-18" value="Join complete&lt;br&gt;(Food)" style="rounded=1;whiteSpace=wrap;html=1;arcSize=48;fontColor=#FFFFFF;labelBackgroundColor=none;fillColor=#121212;strokeColor=#FFFFFF;gradientColor=none;" parent="1" vertex="1">
                    <mxGeometry x="150" y="300" width="120" height="60" as="geometry"/>
                </mxCell>
                <mxCell id="VZBSSg5EoV50FxqD5qvx-20" value="No Match Found" style="endArrow=classic;html=1;rounded=0;exitX=0.5;exitY=1;exitDx=0;exitDy=0;entryX=0.5;entryY=0;entryDx=0;entryDy=0;fontColor=#FFFFFF;labelBackgroundColor=none;fillColor=#121212;strokeColor=#FFFFFF;" parent="1" source="VZBSSg5EoV50FxqD5qvx-1" target="VZBSSg5EoV50FxqD5qvx-3" edge="1">
                    <mxGeometry width="50" height="50" relative="1" as="geometry">
                        <mxPoint x="420" y="380" as="sourcePoint"/>
                        <mxPoint x="470" y="330" as="targetPoint"/>
                    </mxGeometry>
                </mxCell>
                <mxCell id="VZBSSg5EoV50FxqD5qvx-22" value="Multiple Matches Found" style="endArrow=classic;html=1;rounded=0;exitX=0.5;exitY=1;exitDx=0;exitDy=0;fontColor=#FFFFFF;labelBackgroundColor=none;fillColor=#121212;strokeColor=#FFFFFF;" parent="1" source="VZBSSg5EoV50FxqD5qvx-3" edge="1">
                    <mxGeometry width="50" height="50" relative="1" as="geometry">
                        <mxPoint x="420" y="380" as="sourcePoint"/>
                        <mxPoint x="400" y="320" as="targetPoint"/>
                    </mxGeometry>
                </mxCell>
                <mxCell id="VZBSSg5EoV50FxqD5qvx-23" value="Narrow it down:&lt;br&gt;&amp;nbsp;Also join by Group ID" style="rounded=0;whiteSpace=wrap;html=1;fontColor=#FFFFFF;labelBackgroundColor=none;fillColor=#121212;strokeColor=#FFFFFF;gradientColor=none;" parent="1" vertex="1">
                    <mxGeometry x="340" y="320" width="120" height="60" as="geometry"/>
                </mxCell>
                <mxCell id="VZBSSg5EoV50FxqD5qvx-24" value="Should never occur.&lt;br&gt;Raise an Error." style="rounded=1;whiteSpace=wrap;html=1;arcSize=50;fontColor=#FFFFFF;labelBackgroundColor=none;fillColor=#121212;strokeColor=#FFFFFF;gradientColor=none;" parent="1" vertex="1">
                    <mxGeometry x="530" y="300" width="120" height="60" as="geometry"/>
                </mxCell>
                <mxCell id="VZBSSg5EoV50FxqD5qvx-27" value="" style="endArrow=classic;html=1;rounded=0;exitX=0.25;exitY=1;exitDx=0;exitDy=0;entryX=0.5;entryY=0;entryDx=0;entryDy=0;fontColor=#FFFFFF;labelBackgroundColor=none;fillColor=#121212;strokeColor=#FFFFFF;" parent="1" edge="1">
                    <mxGeometry width="50" height="50" relative="1" as="geometry">
                        <mxPoint x="370" y="380" as="sourcePoint"/>
                        <mxPoint x="210" y="420" as="targetPoint"/>
                        <Array as="points">
                            <mxPoint x="210" y="380"/>
                        </Array>
                    </mxGeometry>
                </mxCell>
                <mxCell id="VZBSSg5EoV50FxqD5qvx-28" value="Unique Match" style="edgeLabel;html=1;align=center;verticalAlign=middle;resizable=0;points=[];fontColor=#FFFFFF;labelBackgroundColor=none;fillColor=#121212;" parent="VZBSSg5EoV50FxqD5qvx-27" vertex="1" connectable="0">
                    <mxGeometry x="0.16" y="-2" relative="1" as="geometry">
                        <mxPoint x="16" y="2" as="offset"/>
                    </mxGeometry>
                </mxCell>
                <mxCell id="VZBSSg5EoV50FxqD5qvx-29" value="Otherwise" style="endArrow=classic;html=1;rounded=0;exitX=0.75;exitY=1;exitDx=0;exitDy=0;entryX=0.5;entryY=0;entryDx=0;entryDy=0;fontColor=#FFFFFF;labelBackgroundColor=none;fillColor=#121212;strokeColor=#FFFFFF;" parent="1" edge="1">
                    <mxGeometry width="50" height="50" relative="1" as="geometry">
                        <mxPoint x="430" y="380" as="sourcePoint"/>
                        <mxPoint x="590" y="420" as="targetPoint"/>
                        <Array as="points">
                            <mxPoint x="590" y="380"/>
                        </Array>
                    </mxGeometry>
                </mxCell>
                <mxCell id="VZBSSg5EoV50FxqD5qvx-32" value="Join complete&lt;br&gt;(Food and Group)" style="rounded=1;whiteSpace=wrap;html=1;arcSize=48;fontColor=#FFFFFF;labelBackgroundColor=none;fillColor=#121212;strokeColor=#FFFFFF;gradientColor=none;" parent="1" vertex="1">
                    <mxGeometry x="150" y="420" width="120" height="60" as="geometry"/>
                </mxCell>
                <mxCell id="VZBSSg5EoV50FxqD5qvx-33" value="Should never occur.&lt;br&gt;Raise an Error." style="rounded=1;whiteSpace=wrap;html=1;arcSize=50;fontColor=#FFFFFF;labelBackgroundColor=none;fillColor=#121212;strokeColor=#FFFFFF;gradientColor=none;" parent="1" vertex="1">
                    <mxGeometry x="530" y="420" width="120" height="60" as="geometry"/>
                </mxCell>
            </root>
        </mxGraphModel>
    </diagram>
</mxfile>
